<svg width="24" height="24" viewBox="0 0 24 24" fill="none" xmlns="http://www.w3.org/2000/svg">
<g clip-path="url(#clip0_222_4086)">
<path d="M12 24C18.6274 24 24 18.6274 24 12C24 5.37258 18.6274 0 12 0C5.37258 0 0 5.37258 0 12C0 18.6274 5.37258 24 12 24Z" fill="#F0F0F0"/>
<path d="M2.48069 4.69418C1.53808 5.92057 0.827312 7.33409 0.413452 8.86967H6.65617L2.48069 4.69418Z" fill="#0052B4"/>
<path d="M23.5866 8.86962C23.1728 7.33409 22.4619 5.92057 21.5194 4.69418L17.344 8.86962H23.5866Z" fill="#0052B4"/>
<path d="M0.413452 15.1306C0.827358 16.6661 1.53812 18.0796 2.48069 19.306L6.65603 15.1306H0.413452Z" fill="#0052B4"/>
<path d="M19.3058 2.48061C18.0794 1.538 16.6659 0.827236 15.1304 0.41333V6.656L19.3058 2.48061Z" fill="#0052B4"/>
<path d="M4.69421 21.5193C5.9206 22.4619 7.33412 23.1726 8.86965 23.5865V17.3439L4.69421 21.5193Z" fill="#0052B4"/>
<path d="M8.8696 0.41333C7.33407 0.827236 5.92056 1.538 4.69421 2.48056L8.8696 6.65595V0.41333Z" fill="#0052B4"/>
<path d="M15.1304 23.5865C16.6659 23.1726 18.0794 22.4619 19.3058 21.5193L15.1304 17.3439V23.5865Z" fill="#0052B4"/>
<path d="M17.344 15.1306L21.5194 19.306C22.4619 18.0797 23.1728 16.6661 23.5866 15.1306H17.344Z" fill="#0052B4"/>
<path d="M23.8984 10.4348H13.5653H13.5653V0.101578C13.0529 0.034875 12.5305 0 12 0C11.4694 0 10.9471 0.034875 10.4348 0.101578V10.4347V10.4347H0.101578C0.034875 10.9471 0 11.4695 0 12C0 12.5306 0.034875 13.0529 0.101578 13.5652H10.4347H10.4347V23.8984C10.9471 23.9651 11.4694 24 12 24C12.5305 24 13.0529 23.9652 13.5652 23.8984V13.5653V13.5653H23.8984C23.9651 13.0529 24 12.5306 24 12C24 11.4695 23.9651 10.9471 23.8984 10.4348Z" fill="#D80027"/>
<path d="M15.1304 15.1305L20.4852 20.4853C20.7315 20.2391 20.9664 19.9817 21.1906 19.7149L16.6061 15.1304H15.1304V15.1305Z" fill="#D80027"/>
<path d="M8.86951 15.1306H8.86941L3.51465 20.4854C3.76084 20.7316 4.01823 20.9666 4.28504 21.1907L8.86951 16.6062V15.1306Z" fill="#D80027"/>
<path d="M8.86951 8.86957V8.86948L3.5147 3.51462C3.26842 3.76081 3.03348 4.0182 2.80933 4.28501L7.39384 8.86952H8.86951V8.86957Z" fill="#D80027"/>
<path d="M15.1304 8.86971L20.4852 3.51481C20.239 3.26853 19.9817 3.03359 19.7148 2.80948L15.1304 7.39399V8.86971Z" fill="#D80027"/>
</g>
<defs>
<clipPath id="clip0_222_4086">
<rect width="24" height="24" fill="white"/>
</clipPath>
</defs>
</svg>
