<svg width="48" height="48" viewBox="0 0 48 48" fill="none" xmlns="http://www.w3.org/2000/svg">
<path fill-rule="evenodd" clip-rule="evenodd" d="M24.9378 23.1347V29.6581L30.0013 34.7224C30.3684 35.089 30.3684 35.6825 30.0013 36.0491C29.82 36.2317 29.5812 36.3237 29.338 36.3237C29.0992 36.3237 28.8604 36.2317 28.6746 36.0491L24.0002 31.3716L19.3258 36.0491C19.1401 36.2317 18.9012 36.3237 18.6581 36.3237C18.4193 36.3237 18.1805 36.2317 17.9991 36.0491C17.6321 35.6824 17.6321 35.089 17.9991 34.7224L23.0626 29.6581V23.1347C23.0626 22.6173 23.4827 22.1972 24.0001 22.1972C24.5177 22.1972 24.9378 22.6173 24.9378 23.1347ZM6.89927 43.9022C3.78602 43.9022 1.87558 43.0098 1.87558 42.3695C1.87558 39.5986 4.13093 37.3444 6.89927 37.3444C9.67202 37.3444 11.9274 39.5985 11.9274 42.3695C11.9275 43.0098 10.0126 43.9022 6.89927 43.9022ZM6.89927 35.4694C3.09611 35.4694 0.000488281 38.5641 0.000488281 42.3695C0.000488281 43.0492 0.32327 44.3083 2.47699 45.1016C3.66218 45.5371 5.23211 45.7773 6.89927 45.7773C10.0833 45.7773 13.8025 44.8849 13.8025 42.3695C13.8025 38.5641 10.7068 35.4694 6.89927 35.4694ZM6.89927 29.4546C7.72624 29.4546 8.39843 30.126 8.39843 30.9515C8.39843 31.7776 7.72624 32.4489 6.89927 32.4489C6.07671 32.4489 5.40452 31.7776 5.40452 30.9515C5.40452 30.126 6.07671 29.4546 6.89927 29.4546ZM6.89927 34.324C8.76105 34.324 10.2735 32.8107 10.2735 30.9515C10.2735 29.0924 8.76105 27.5795 6.89927 27.5795C5.04189 27.5795 3.52952 29.0924 3.52952 30.9515C3.52952 32.8107 5.04189 34.324 6.89927 34.324ZM41.1012 43.9022C37.9836 43.9022 36.0731 43.0098 36.0731 42.3695C36.0731 39.5986 38.3285 37.3444 41.1012 37.3444C43.8696 37.3444 46.1249 39.5985 46.1249 42.3695C46.125 43.0098 44.2146 43.9022 41.1012 43.9022ZM41.1012 35.4694C37.2937 35.4694 34.1981 38.5641 34.1981 42.3695C34.1981 43.0492 34.5208 44.3083 36.6746 45.1016C37.8597 45.5371 39.4297 45.7773 41.1012 45.7773C44.2809 45.7773 48 44.8849 48 42.3695C48.0001 38.5641 44.9045 35.4694 41.1012 35.4694ZM42.596 30.9516C42.596 31.7776 41.9238 32.449 41.1012 32.449C40.2743 32.449 39.6021 31.7776 39.6021 30.9516C39.6021 30.126 40.2743 29.4547 41.1012 29.4547C41.9238 29.4546 42.596 30.126 42.596 30.9516ZM37.7271 30.9516C37.7271 32.8108 39.2395 34.3241 41.1012 34.3241C42.9586 34.3241 44.471 32.8108 44.471 30.9516C44.471 29.0925 42.9585 27.5796 41.1012 27.5796C39.2395 27.5796 37.7271 29.0925 37.7271 30.9516ZM32.5618 45.0331C32.7741 45.5058 32.5618 46.0607 32.0887 46.2731C29.5415 47.4207 26.8173 48.0031 24.0003 48.0031C21.1833 48.0031 18.4591 47.4207 15.9075 46.2731C15.4388 46.0608 15.2265 45.5058 15.4388 45.0331C15.651 44.5617 16.2039 44.3506 16.677 44.5634C18.9854 45.6022 21.4487 46.128 24.0004 46.128C26.5521 46.128 29.0153 45.6021 31.3237 44.5634C31.7923 44.3506 32.3496 44.5617 32.5618 45.0331ZM13.7582 12.4774C14.0634 12.8967 13.9705 13.4821 13.5504 13.786C9.84452 16.4637 7.33258 20.3956 6.46586 24.8572C6.38186 25.3052 5.9883 25.6165 5.55049 25.6165C5.48861 25.6165 5.43105 25.6108 5.36918 25.5997C4.86058 25.5011 4.52899 25.0089 4.62621 24.5008C5.58143 19.5694 8.35858 15.2241 12.4492 12.2665C12.8694 11.9627 13.4576 12.0573 13.7582 12.4774ZM34.2379 12.4784C34.5431 12.0583 35.1312 11.9645 35.5469 12.2674C39.642 15.2251 42.4192 19.5704 43.3744 24.5009C43.4717 25.009 43.14 25.5012 42.6314 25.5998C42.5695 25.6109 42.512 25.6166 42.4501 25.6166C42.0123 25.6166 41.6187 25.3052 41.5347 24.8573C40.6679 20.3966 38.1561 16.4647 34.4502 13.787C34.03 13.4836 33.9371 12.8976 34.2379 12.4784ZM24.0003 11.7509C22.6869 11.7509 21.6123 10.6802 21.6123 9.36502C21.6123 8.04943 22.687 6.9788 24.0003 6.9788C25.3137 6.9788 26.3883 8.04943 26.3883 9.36502C26.3883 10.6802 25.3137 11.7509 24.0003 11.7509ZM24.0003 5.10418C21.6521 5.10418 19.7372 7.01546 19.7372 9.36502C19.7372 11.7141 21.6521 13.6259 24.0003 13.6259C26.3485 13.6259 28.259 11.7141 28.259 9.36502C28.259 7.01546 26.3485 5.10418 24.0003 5.10418ZM31.4873 9.8484V8.88211C30.5011 8.75161 29.6741 8.12368 29.285 7.1769C28.8914 6.23002 29.0285 5.20233 29.6344 4.41296L28.9534 3.72971C28.1618 4.33515 27.1359 4.47399 26.1895 4.08127C25.2431 3.68902 24.6151 2.86515 24.4825 1.87805H23.5183C23.3857 2.86515 22.7577 3.68902 21.8113 4.08127C20.865 4.47399 19.839 4.33515 19.0474 3.72971L18.3664 4.41296C18.9722 5.20233 19.1093 6.23011 18.7157 7.1769C18.3266 8.12368 17.4996 8.75171 16.5134 8.88211V9.8484C17.4996 9.97796 18.3266 10.6073 18.7157 11.5532C19.1093 12.5 18.9722 13.5273 18.3664 14.3167L19.0474 15.0004C19.839 14.3937 20.8649 14.2548 21.8113 14.6466C22.7577 15.0397 23.3857 15.8636 23.5183 16.8516H24.4825C24.6151 15.8645 25.2431 15.0406 26.1895 14.6489C27.1358 14.2566 28.1618 14.3945 28.9534 15.0004L29.6344 14.3167C29.0286 13.5273 28.8914 12.5 29.285 11.5532C29.674 10.6073 30.501 9.97796 31.4873 9.8484ZM31.8719 7.0314C31.2971 7.0314 31.0715 6.59358 31.014 6.45961C30.961 6.32471 30.8106 5.85511 31.213 5.44918C31.7967 4.86765 31.7967 3.92255 31.213 3.34149L30.0235 2.14965C29.7404 1.86793 29.369 1.71315 28.9709 1.71315C28.573 1.71315 28.197 1.86793 27.914 2.14965C27.5115 2.55474 27.0384 2.40483 26.9057 2.34952C26.773 2.29336 26.3352 2.06743 26.3352 1.49471C26.3352 0.672145 25.663 0.00305176 24.8449 0.00305176H23.1556C22.3375 0.00305176 21.6653 0.672145 21.6653 1.49471C21.6653 2.06743 21.2275 2.29336 21.0948 2.34952C20.9577 2.40483 20.489 2.55474 20.0821 2.14965C19.8035 1.86793 19.4276 1.71315 19.0296 1.71315C18.6316 1.71315 18.2557 1.86793 17.9771 2.14965L16.7831 3.34149C16.2039 3.92255 16.2039 4.86765 16.7831 5.45002C17.19 5.85511 17.0396 6.32471 16.9866 6.45961C16.929 6.59358 16.7036 7.0314 16.1286 7.0314C15.306 7.0314 14.6382 7.70096 14.6382 8.52305V10.2079C14.6382 11.03 15.306 11.6982 16.1286 11.6982C16.7035 11.6982 16.929 12.1368 16.9865 12.2714C17.0396 12.4053 17.1899 12.875 16.7831 13.281C16.2038 13.862 16.2038 14.808 16.7831 15.389L17.9771 16.5799C18.2557 16.8621 18.6315 17.0164 19.0296 17.0164C19.4275 17.0164 19.8035 16.8621 20.0821 16.5799C20.489 16.174 20.9621 16.3239 21.0948 16.3792C21.2275 16.4345 21.6653 16.6614 21.6653 17.2363C21.6653 18.0575 22.3375 18.7265 23.1556 18.7265H24.8449C25.663 18.7265 26.3352 18.0574 26.3352 17.2363C26.3352 16.6622 26.773 16.4363 26.9057 16.381C27.0384 16.3248 27.5115 16.1749 27.914 16.5799C28.197 16.8621 28.5729 17.0164 28.9709 17.0164C29.3689 17.0164 29.7404 16.8621 30.0235 16.5799L31.2131 15.389C31.7968 14.808 31.7968 13.862 31.2131 13.281C30.8106 12.875 30.961 12.4053 31.0141 12.2714C31.0716 12.1369 31.2971 11.6982 31.872 11.6982C32.6946 11.6982 33.3624 11.03 33.3624 10.2079V8.52305C33.3623 7.70096 32.6945 7.0314 31.8719 7.0314Z" fill="#2BC69D"/>
</svg>
