<svg width="48" height="48" viewBox="0 0 48 48" fill="none" xmlns="http://www.w3.org/2000/svg">
<g clip-path="url(#clip0_187_1149)">
<path fill-rule="evenodd" clip-rule="evenodd" d="M42.1317 20.987L39.0493 17.9045L24.9422 32.0139L28.0245 35.0964L42.1317 20.987ZM22.4747 37.4213L23.9473 33.6733L26.3265 36.0526L22.4747 37.4213ZM35.317 30.452V46.1279H2.78223V1.87758H26.3V9.68349C26.3 10.2011 26.7201 10.621 27.2375 10.621H35.3169V18.9845L22.9168 31.3876C22.8239 31.4785 22.7532 31.5873 22.7046 31.7072L19.9805 38.6515C19.8434 38.9926 19.923 39.3816 20.1751 39.6462C20.3564 39.8317 20.5996 39.931 20.8517 39.931C20.9578 39.931 21.0639 39.9132 21.1657 39.8776L28.2988 37.3417C28.4315 37.2949 28.5509 37.2197 28.6481 37.1215L35.317 30.452ZM28.175 8.74599H33.9416L28.175 3.15568V8.74599ZM41.4773 15.4783C42.3264 14.6278 43.7106 14.6278 44.5596 15.4783C45.4087 16.3276 45.4087 17.7103 44.5596 18.5596L43.4584 19.6604L40.3761 16.5788L41.4773 15.4783ZM46.8194 24.346L41.9859 29.176C41.8045 29.3589 41.5658 29.4507 41.3269 29.4507C41.0837 29.4507 40.8448 29.359 40.6635 29.176C40.2965 28.8105 40.2965 28.216 40.6635 27.8505L44.8293 23.6832L43.4584 22.3126L37.192 28.5771V47.0654C37.192 47.5839 36.7719 48.0029 36.2545 48.0029H1.84473C1.32732 48.0029 0.907227 47.584 0.907227 47.0654V0.940552C0.907227 0.423146 1.32732 0.00305176 1.84473 0.00305176H27.2376C27.4852 0.00305176 27.7195 0.098583 27.892 0.26752L36.9091 9.01055C37.0904 9.18671 37.1921 9.42943 37.1921 9.68358V17.1096L40.1506 14.1517C41.7338 12.5711 44.3032 12.5711 45.8863 14.1517C47.4651 15.7334 47.4651 18.3048 45.8863 19.8855L44.7851 20.987L46.8194 23.0205C47.182 23.3869 47.182 23.9805 46.8194 24.346ZM15.7882 38.2707H9.2476C8.7302 38.2707 8.3101 38.6908 8.3101 39.2082C8.3101 39.7258 8.7302 40.1457 9.2476 40.1457H15.7882C16.3056 40.1457 16.7257 39.7258 16.7257 39.2082C16.7257 38.6909 16.3056 38.2707 15.7882 38.2707ZM15.7882 32.1742H9.2476C8.7302 32.1742 8.3101 32.5941 8.3101 33.1117C8.3101 33.6293 8.7302 34.0492 9.2476 34.0492H15.7882C16.3056 34.0492 16.7257 33.6293 16.7257 33.1117C16.7257 32.5941 16.3056 32.1742 15.7882 32.1742ZM18.0656 26.0776H9.2476C8.7302 26.0776 8.3101 26.4976 8.3101 27.0151C8.3101 27.5326 8.7302 27.9526 9.2476 27.9526H18.0656C18.583 27.9526 19.0031 27.5326 19.0031 27.0151C19.0031 26.4975 18.583 26.0776 18.0656 26.0776ZM19.9407 15.3517C19.9407 14.8341 19.5206 14.4142 19.0032 14.4142C18.4814 14.4142 18.0657 14.8342 18.0657 15.3517V17.3731H10.1851V9.7793H19.0032C19.5206 9.7793 19.9407 9.35921 19.9407 8.8418C19.9407 8.32421 19.5206 7.9043 19.0032 7.9043H9.2476C8.7302 7.9043 8.3101 8.3243 8.3101 8.8418V18.3106C8.3101 18.8281 8.7302 19.2481 9.2476 19.2481H19.0032C19.5206 19.2481 19.9407 18.8281 19.9407 18.3106V15.3517ZM15.2752 13.7073L14.2492 12.406C13.9308 11.9992 13.3426 11.9289 12.9357 12.2495C12.5289 12.5693 12.4582 13.1589 12.7765 13.5659L14.3597 15.5758C14.5454 15.8102 14.8196 15.9331 15.0982 15.9331C15.2884 15.9331 15.4829 15.8748 15.6465 15.755L22.5232 10.7711C22.9389 10.4674 23.0362 9.88055 22.731 9.46149C22.4259 9.04243 21.8421 8.94961 21.422 9.25336L15.2752 13.7073Z" fill="#2BC69D"/>
</g>
<defs>
<clipPath id="clip0_187_1149">
<rect width="48" height="48" fill="white"/>
</clipPath>
</defs>
</svg>
