<svg width="48" height="48" viewBox="0 0 48 48" fill="none" xmlns="http://www.w3.org/2000/svg">
<g clip-path="url(#clip0_187_1137)">
<path fill-rule="evenodd" clip-rule="evenodd" d="M46.1249 34.2207V32.6981C44.5462 33.7462 42.0918 34.3958 39.2354 34.3958C36.3786 34.3958 33.9243 33.7462 32.3446 32.6981V34.2207C32.3446 35.367 34.9657 36.9674 39.2354 36.9674C43.5038 36.9674 46.1249 35.367 46.1249 34.2207ZM46.1249 38.6674V37.1448C44.5462 38.1928 42.0918 38.8425 39.2354 38.8425C36.3786 38.8425 33.9234 38.1928 32.3446 37.1448V38.6674C32.3446 39.8141 34.9657 41.414 39.2354 41.414C43.5038 41.414 46.1249 39.814 46.1249 38.6674ZM46.1249 43.125V41.5913C44.5462 42.6394 42.0918 43.289 39.2354 43.289C36.3786 43.289 33.9234 42.6394 32.3446 41.5913V43.125C32.3446 44.2726 34.9657 45.8721 39.2354 45.8721C43.5038 45.8721 46.1249 44.2726 46.1249 43.125ZM30.4695 40.7736C27.9877 44.2226 23.9303 45.8455 17.732 45.872C17.6812 45.872 17.6325 45.872 17.5816 45.872C8.6521 45.872 3.92335 42.451 2.25835 34.7933C0.722542 27.7275 3.8867 20.0322 10.9478 13.6142C13.0696 14.0484 15.3448 14.266 17.6201 14.266C19.8954 14.266 22.1707 14.0484 24.2916 13.6142C28.5729 17.512 31.5459 22.0829 32.7457 26.6029C31.3199 27.4179 30.4695 28.5226 30.4695 29.774V40.7736ZM9.91201 3.64807L12.0458 8.33576C15.5416 9.04779 19.6994 9.04779 23.1935 8.33623C23.1935 8.33623 25.3245 3.65389 25.3272 3.64817C25.4462 3.3851 25.2428 2.93885 24.9102 3.0012C24.5971 3.05914 24.3279 3.27542 24.0598 3.43367C23.0211 4.04529 21.7028 3.77239 20.9934 2.7986C20.8209 2.56245 20.6454 2.16532 20.3173 2.13654C19.9171 2.1012 19.5939 2.61504 19.3404 2.85823C18.3746 3.78335 16.8636 3.78335 15.8991 2.85823C15.708 2.67467 15.5293 2.47395 15.3242 2.3037C15.1283 2.1401 14.8846 2.07373 14.6688 2.24135C14.4818 2.38601 14.3822 2.61195 14.2464 2.7986C13.5362 3.77285 12.2175 4.04567 11.1796 3.4332C10.9377 3.29032 10.691 3.12139 10.4252 3.02857C10.0642 2.90248 9.76651 3.32745 9.91201 3.64807ZM23.9462 11.7714C24.3845 11.6812 24.6776 11.2429 24.5879 10.8034C24.4986 10.366 24.059 10.0741 23.6212 10.163C19.8626 10.9369 15.3758 10.9369 11.6173 10.163C11.5629 10.152 11.5076 10.1463 11.4533 10.1463C11.0739 10.1463 10.7267 10.4332 10.6515 10.803C10.5618 11.2416 10.8532 11.6817 11.2914 11.771C15.3139 12.5992 19.9254 12.5992 23.9462 11.7714ZM39.2354 27.027C34.9657 27.027 32.3446 28.6265 32.3446 29.7741C32.3446 30.9209 34.9657 32.5213 39.2354 32.5213C43.5038 32.5213 46.1249 30.9209 46.1249 29.7741C46.1249 28.6265 43.5038 27.027 39.2354 27.027ZM47.9999 29.7741V43.125C47.9999 45.7602 44.2321 47.7471 39.2354 47.7471C34.5402 47.7471 30.9299 45.9928 30.5107 43.5955C27.6442 46.3913 23.5133 47.7224 17.7399 47.7471C17.6877 47.7471 17.6351 47.7471 17.5834 47.7471C7.74067 47.7471 2.28714 43.7552 0.426667 35.1919C-0.483833 31.0062 0.0521352 26.7037 2.0191 22.4053C3.59964 18.9493 6.1066 15.5719 9.29992 12.5842C9.26804 12.5418 9.23626 12.4984 9.2071 12.4538C8.80951 11.8533 8.67067 11.1337 8.81392 10.4284C8.95848 9.72307 9.36798 9.11585 9.96817 8.71882C10.0181 8.68657 10.0676 8.65648 10.1181 8.6277L8.20595 4.4246C7.78182 3.49414 8.00917 2.4102 8.76798 1.72657C10.0451 0.577667 11.2798 1.31135 12.0166 1.75001C12.1404 1.82342 12.2559 1.89326 12.4049 1.88004C12.6141 1.86054 12.7313 1.69517 12.8427 1.53776C13.1951 1.04248 13.6772 0.364104 14.7571 0.268573C15.8662 0.171261 16.5225 0.82976 17.0014 1.31135C17.1446 1.45592 17.2826 1.61689 17.4909 1.6616C17.8067 1.73014 18.0326 1.51742 18.2379 1.31135C18.7168 0.82976 19.3721 0.171261 20.4821 0.268573C21.562 0.364104 22.0441 1.04248 22.3965 1.53776C22.4819 1.65851 22.5588 1.78714 22.7012 1.84685C22.8909 1.92598 23.0568 1.84817 23.2226 1.75001C23.9594 1.31135 25.1941 0.577667 26.4708 1.72704C27.2301 2.40982 27.4561 3.49414 27.0338 4.4246L25.1212 8.62751C25.1716 8.65629 25.2216 8.68629 25.2702 8.71863C25.6496 8.96932 25.9525 9.3041 26.1609 9.6942C29.4038 9.69288 30.7631 8.28438 32.3211 6.66757C32.8704 6.09795 33.4377 5.50939 34.1006 4.97651C34.5044 4.65195 35.0943 4.71654 35.4185 5.11976C35.743 5.52354 35.6794 6.11342 35.2752 6.43807C34.7051 6.89623 34.2024 7.41757 33.6713 7.9691C32.6369 9.04188 31.5207 10.2005 29.8089 10.9054C29.995 10.9205 30.1839 10.9342 30.374 10.9479C32.9332 11.1354 35.8329 11.3477 37.1905 14.5353C37.394 15.0115 37.172 15.5621 36.6957 15.7651C36.5754 15.816 36.4508 15.8403 36.3292 15.8403C35.9643 15.8403 35.6176 15.6262 35.4654 15.2698C34.6 13.2373 32.9147 13.014 30.237 12.818C28.8767 12.7186 27.4819 12.6159 26.2304 12.1003C26.1738 12.2219 26.1075 12.34 26.0323 12.4536C26.0027 12.4987 25.9718 12.542 25.9394 12.585C30.1941 16.5668 33.1849 21.2098 34.4837 25.8456C35.8356 25.4034 37.4577 25.1518 39.2355 25.1518C44.2321 25.1519 47.9999 27.1388 47.9999 29.7741ZM22.5572 33.3234C22.5572 30.8373 20.3416 28.814 17.6193 28.814C15.9309 28.814 14.5573 27.6319 14.5573 26.1797C14.5573 24.7269 15.9309 23.5453 17.6193 23.5453C18.4573 23.5453 19.2405 23.8324 19.8243 24.3532C20.2095 24.6981 20.8029 24.6646 21.147 24.2785C21.4919 23.892 21.4592 23.2995 21.0731 22.9545C20.3682 22.3261 19.4913 21.9117 18.5418 21.7485L18.5099 20.3833C18.4967 19.8659 18.0685 19.4551 17.5498 19.4683C17.0324 19.4807 16.6224 19.9105 16.6348 20.4279L16.6667 21.7542C14.399 22.1611 12.6822 23.9905 12.6822 26.1796C12.6822 28.6658 14.8969 30.6889 17.6193 30.6889C19.3086 30.6889 20.6822 31.871 20.6822 33.3233C20.6822 34.7764 19.3087 35.9577 17.6193 35.9577C16.4598 35.9577 15.8729 35.5809 14.9164 34.6779C14.5396 34.3228 13.9462 34.3405 13.591 34.7173C13.2355 35.0936 13.2532 35.6871 13.6295 36.0423C14.4591 36.8241 15.3272 37.5405 16.7007 37.7626L16.7295 38.9888C16.7419 39.4987 17.1598 39.9038 17.667 39.9038H17.6896C18.207 39.8906 18.617 39.4611 18.6046 38.9437L18.5754 37.7483C20.8422 37.3406 22.5572 35.5115 22.5572 33.3234Z" fill="#2BC69D"/>
</g>
<defs>
<clipPath id="clip0_187_1137">
<rect width="48" height="48" fill="white"/>
</clipPath>
</defs>
</svg>
