<svg width="48" height="48" viewBox="0 0 48 48" fill="none" xmlns="http://www.w3.org/2000/svg">
<g clip-path="url(#clip0_187_1133)">
<path fill-rule="evenodd" clip-rule="evenodd" d="M14.9526 10.1971C16.1259 10.0981 17.1169 9.3768 17.5764 8.26587C18.0367 7.15502 17.8466 5.94462 17.0873 5.04377L18.1172 4.01252C19.0185 4.77274 20.2284 4.96334 21.3398 4.50293C22.4507 4.04262 23.1715 3.05243 23.2719 1.87784H24.7286C24.829 3.05243 25.5498 4.04252 26.6607 4.50293C27.7715 4.96324 28.9819 4.77265 29.8832 4.01337L30.9132 5.04377C30.1539 5.94462 29.9637 7.15493 30.4241 8.26587C30.8836 9.37671 31.8741 10.098 33.0482 10.1971V11.6551C31.8741 11.7542 30.8836 12.4754 30.4241 13.5872C29.9637 14.6981 30.1539 15.9085 30.9132 16.8084L29.8832 17.8397C28.982 17.0795 27.7716 16.8889 26.6607 17.3493C25.5498 17.8097 24.829 18.7998 24.7286 19.9744H23.2719C23.1715 18.799 22.4516 17.8079 21.3403 17.3485C20.2298 16.8881 19.0195 17.0786 18.1173 17.8398L17.0874 16.8085C17.8467 15.9086 18.0369 14.6981 17.5765 13.5873C17.117 12.4765 16.126 11.7542 14.9527 11.6552V10.1971H14.9526ZM14.6701 13.5178C15.4577 13.5178 15.7681 14.1197 15.845 14.3046C15.9206 14.489 16.1271 15.1342 15.57 15.6901C15.2692 15.9909 15.1035 16.3916 15.1035 16.8169C15.1035 17.2427 15.2693 17.6429 15.57 17.9437L16.982 19.3566C17.2828 19.6573 17.6835 19.8227 18.1088 19.8227C18.5347 19.8227 18.9349 19.6573 19.2356 19.3566C19.7937 18.798 20.4385 19.0042 20.6224 19.0802C20.8073 19.1567 21.4079 19.4672 21.4079 20.2556C21.4079 21.1344 22.1234 21.8495 23.0016 21.8495H24.9988C25.877 21.8495 26.5925 21.1344 26.5925 20.2556C26.5925 19.4694 27.1944 19.1589 27.378 19.082C27.5628 19.006 28.2076 18.7998 28.7643 19.3557C29.0656 19.6573 29.4658 19.8227 29.8916 19.8227C30.317 19.8227 30.7163 19.6573 31.0184 19.3566L32.43 17.9437C32.7311 17.6429 32.8969 17.2427 32.8969 16.8169C32.8969 16.3915 32.7311 15.9908 32.43 15.6901C31.8732 15.1343 32.0792 14.489 32.1554 14.3046C32.2323 14.1197 32.5427 13.5178 33.3303 13.5178C34.2086 13.5178 34.9232 12.8036 34.9232 11.9249V9.92824C34.9232 9.04868 34.2086 8.3344 33.3303 8.3344C32.5427 8.3344 32.2322 7.73252 32.1554 7.54765C32.0793 7.36409 31.8733 6.7189 32.43 6.16212C32.7311 5.86137 32.8969 5.46115 32.8969 5.03534C32.8969 4.6099 32.7311 4.20921 32.43 3.90846L31.0175 2.49659C30.7164 2.19584 30.317 2.03009 29.8916 2.03009C29.4657 2.03009 29.0656 2.19593 28.7643 2.49659C28.2076 3.05337 27.5628 2.8473 27.378 2.77034C27.1944 2.6943 26.5925 2.38427 26.5925 1.59668C26.5925 0.71843 25.877 0.00292969 24.9988 0.00292969H23.0016C22.1234 0.00292969 21.4079 0.71843 21.4079 1.59668C21.4079 2.38427 20.806 2.6943 20.6224 2.77034C20.4376 2.8473 19.7928 3.05337 19.2356 2.49659C18.9349 2.19584 18.5347 2.03009 18.1088 2.03009C17.6834 2.03009 17.2827 2.19593 16.982 2.49659L15.57 3.90865C15.2692 4.2094 15.1035 4.61009 15.1035 5.03552C15.1035 5.46134 15.2693 5.86165 15.57 6.1623C16.1271 6.71899 15.9207 7.36427 15.845 7.54784C15.7681 7.73271 15.4577 8.33459 14.6701 8.33459C13.7918 8.33459 13.0776 9.04877 13.0776 9.92843V11.9251C13.0776 12.8036 13.7918 13.5178 14.6701 13.5178ZM24.0002 7.68087C22.2106 7.68087 20.7547 9.13718 20.7547 10.9269C20.7547 12.7161 22.2106 14.1715 24.0002 14.1715C25.7899 14.1715 27.2458 12.7161 27.2458 10.9269C27.2457 9.13709 25.7899 7.68087 24.0002 7.68087ZM24.0002 16.0461C26.8239 16.0461 29.1208 13.7496 29.1208 10.9269C29.1208 8.10284 26.8238 5.80634 24.0002 5.80634C21.1766 5.80634 18.8797 8.10284 18.8797 10.9269C18.8796 13.7496 21.1766 16.0461 24.0002 16.0461ZM42.0445 37.8046C41.9657 37.9302 41.8437 38.0178 41.7022 38.0505L39.4013 38.5772C39.2589 38.6091 39.1116 38.5839 38.986 38.5051C38.8604 38.4264 38.7733 38.3043 38.7406 38.1628L35.8772 25.6632C35.8453 25.5208 35.871 25.3736 35.9497 25.248C36.0285 25.1216 36.1505 25.0353 36.2915 25.0021L38.5934 24.4754C38.7348 24.4427 38.8821 24.4679 39.0077 24.5466C39.1342 24.6262 39.2213 24.7474 39.2532 24.8897L42.1166 37.3893C42.1493 37.5309 42.1232 37.679 42.0445 37.8046ZM33.8845 41.4862C33.5011 41.8696 32.8399 41.8678 32.4592 41.487L26.9543 35.9813C26.5877 35.6156 25.9942 35.6156 25.6276 35.9813C25.2619 36.3478 25.2619 36.9414 25.6276 37.3071C25.6276 37.3071 31.3342 43.0136 31.3625 43.0415C31.7432 43.4231 31.7517 44.0776 31.3625 44.4663C30.9765 44.8528 30.3228 44.8519 29.9363 44.4663L24.0152 38.5444C23.6487 38.1777 23.0552 38.1777 22.6886 38.5444C22.3229 38.9101 22.3229 39.5036 22.6886 39.8702L27.0808 44.262C27.4598 44.6411 27.4323 45.2964 27.0609 45.6674C26.6766 46.0522 26.0204 46.0522 25.636 45.6674L20.8277 40.8582C20.461 40.4925 19.8676 40.4925 19.501 40.8582C19.1357 41.2248 19.1357 41.8183 19.501 42.1849C19.501 42.1849 21.7418 44.4243 21.7427 44.4256C22.1225 44.806 22.1017 45.4604 21.7276 45.8354C21.339 46.2242 20.6853 46.2189 20.298 45.8315L11.4339 37.067L13.761 26.9108H19.6767C19.46 27.1642 19.2398 27.4246 19.0156 27.6909C17.8989 29.0131 16.7443 30.3809 15.5012 31.4224C15.1053 31.7541 15.0527 32.344 15.3831 32.7402C18.4146 36.3816 21.9183 33.9555 23.8005 32.6514C24.7305 32.0075 25.9391 32.1172 26.7395 32.9167L33.8846 40.0614C34.2771 40.454 34.2771 41.0935 33.8845 41.4862ZM8.59871 38.5772C8.89056 38.644 9.19346 38.4548 9.25984 38.1628L12.1232 25.6632C12.156 25.5208 12.1294 25.3736 12.0507 25.248C11.9719 25.1216 11.85 25.0353 11.7084 25.0021C11.7084 25.0021 9.32659 24.4613 9.28637 24.4613C9.04046 24.4613 8.80253 24.6488 8.74731 24.8898C8.74421 24.8999 5.88381 37.3894 5.88381 37.3894C5.81743 37.6808 6.00671 37.9828 6.29818 38.0505L8.59871 38.5772ZM23.8839 25.5668C22.9764 25.906 21.6909 27.4286 20.4482 28.9003C19.5435 29.9718 18.5409 31.1588 17.4641 32.1807C18.9009 33.3358 20.4385 32.699 22.7337 31.1101C24.3938 29.9599 26.6363 30.162 28.0652 31.5909L35.048 38.5736L36.74 37.8263L34.5032 28.0605L34.0606 28.2534C32.8586 28.7756 31.5567 28.7053 30.3909 28.0548C29.6789 27.6564 29.0522 27.2889 28.4995 26.9647C25.9757 25.4841 25.1898 25.0781 23.8839 25.5668ZM43.9447 36.9706L41.0813 24.4706C40.9371 23.8408 40.5546 23.3036 40.004 22.9586C39.4547 22.6136 38.8042 22.5026 38.1741 22.6472L35.8737 23.1739C34.5695 23.4732 33.7515 24.7774 34.0503 26.0812L34.0773 26.2015L33.3122 26.534C32.6507 26.8219 31.9568 26.7817 31.3063 26.4181C30.6107 26.029 29.9928 25.6672 29.4481 25.347C26.9402 23.8762 25.4268 22.9886 23.2276 23.8107C22.6222 24.0368 22.0265 24.4688 21.4194 25.0361H13.9586C13.9007 24.7624 13.7937 24.4971 13.6389 24.2512C13.294 23.7011 12.7571 23.3185 12.1269 23.1739L9.82646 22.6472C9.19628 22.5026 8.54668 22.6136 7.99609 22.9586C7.44596 23.3035 7.06346 23.8408 6.91928 24.4706L4.05568 36.9706C3.75765 38.2748 4.57534 39.5785 5.88034 39.8778L8.18078 40.4045C8.80524 40.5477 9.46815 40.4336 10.0107 40.0931C10.3848 39.8588 10.6811 39.5355 10.8779 39.1539L18.976 47.1609C19.5191 47.704 20.2426 48.0029 21.0152 48.0029C21.7869 48.0029 22.5107 47.704 23.0534 47.1609C23.2997 46.9146 23.4969 46.6293 23.6375 46.3211L24.3102 46.9932C24.8533 47.5359 25.5771 47.8353 26.3484 47.8353C27.1201 47.8353 27.844 47.5359 28.3876 46.9932C28.6454 46.7354 28.8479 46.4374 28.9894 46.1119C29.4715 46.4511 30.0451 46.6342 30.65 46.6342C31.4218 46.6342 32.1452 46.3352 32.6882 45.7922C33.2309 45.2496 33.5298 44.5257 33.5298 43.7544C33.5298 43.7141 33.5289 43.6735 33.5281 43.6332C34.1636 43.5554 34.7517 43.2715 35.2098 42.8129C35.9178 42.1053 36.1792 41.1188 35.9966 40.2046L37.4064 39.5824C37.5696 39.78 37.7655 39.9525 37.9897 40.0931C38.5315 40.4336 39.1961 40.5469 39.8197 40.4045L42.1202 39.8778C42.7503 39.7331 43.2876 39.3506 43.6325 38.8015C43.9784 38.2509 44.0881 37.6012 43.9447 36.9706Z" fill="#2BC69D"/>
</g>
<defs>
<clipPath id="clip0_187_1133">
<rect width="48" height="48" fill="white"/>
</clipPath>
</defs>
</svg>
