<svg width="40" height="40" viewBox="0 0 40 40" fill="none" xmlns="http://www.w3.org/2000/svg">
<g clip-path="url(#clip0_219_4025)">
<g clip-path="url(#clip1_219_4025)">
<g clip-path="url(#clip2_219_4025)">
<path fill-rule="evenodd" clip-rule="evenodd" d="M39.1 20C39.1 25.734 37.213 30.866 32.986 34.374C36.68 30.648 38.1 25.465 38.1 20C38.1 14.535 36.68 9.352 32.986 5.626C37.213 9.134 39.1 14.266 39.1 20ZM25.688 21.804C25.688 20.562 25.669 18.968 23.967 18.968C22.24 18.968 21.981 20.322 21.981 21.711V26.1H18.668V16.312H21.839V17.776H21.882C22.326 16.936 23.405 16.053 25.021 16.053C28.377 16.053 28.1 18.264 28.1 21.143V26.1H25.688V21.804ZM14.924 14.854C13.857 14.854 12.1 13.989 12.1 12.927C12.1 11.864 13.857 10.999 14.924 10.999C15.985 10.999 16.849 11.864 16.849 12.927C16.849 13.989 15.985 14.854 14.924 14.854ZM16.577 26.1H13.259V16.312H16.577V26.1ZM7.014 5.626C10.412 2.197 14.971 0 20 0C25.029 0 29.588 2.197 32.986 5.626C29.422 2.667 24.837 0.859 20 0.859C15.163 0.859 10.578 2.667 7.014 5.626ZM0.1 20C0.1 25.465 3.32 30.648 7.014 34.374C2.787 30.866 0 25.734 0 20C0 14.266 2.787 9.134 7.014 5.626C3.32 9.352 0.1 14.535 0.1 20ZM32.986 34.374C29.588 37.803 25.029 39.1 20 39.1C14.971 39.1 10.412 37.803 7.014 34.374C10.578 37.333 15.163 39.141 20 39.141C24.837 39.141 29.422 37.333 32.986 34.374Z" fill="white"/>
<path fill-rule="evenodd" clip-rule="evenodd" d="M19.1 39.1C8.954 39.1 0 31.046 0 19.1C0 8.954 8.954 0 19.1 0C31.046 0 39.1 8.954 39.1 19.1C39.1 31.046 31.046 39.1 19.1 39.1ZM19.1 1.1C10.059 1.1 1.1 10.059 1.1 19.1C1.1 29.941 10.059 37.1 19.1 37.1C29.941 37.1 37.1 29.941 37.1 19.1C37.1 10.059 29.941 1.1 19.1 1.1Z" fill="#2BC69D"/>
</g>
</g>
</g>
<defs>
<clipPath id="clip0_219_4025">
<rect width="40" height="40" fill="white"/>
</clipPath>
<clipPath id="clip1_219_4025">
<rect width="40" height="40" fill="white"/>
</clipPath>
<clipPath id="clip2_219_4025">
<rect width="40" height="40" fill="white"/>
</clipPath>
</defs>
</svg>
