<svg width="98" height="40" viewBox="0 0 98 40" fill="none" xmlns="http://www.w3.org/2000/svg">
<path fill-rule="evenodd" clip-rule="evenodd" d="M10.9219 6.93359H5.41602L8.71953 13.4299H5.73062L7.30361 17.4719H10.7644L12.1803 20.2148H8.71953L10.6073 24.2568H14.3827L18.9447 33.0629L23.1922 24.2568L26.653 24.1124L28.8554 20.0704H25.3944L26.653 17.4719H29.9565L32.0016 13.2854H28.6981L31.8443 6.93359H26.1811L18.7874 22.2357L10.9219 6.93359Z" fill="#22C99D"/>
<path d="M47.7618 14.3116H50.661L45.87 26.595H42.7988L38.0078 14.3116H40.907L44.3467 23.647L47.7618 14.3116Z" fill="white"/>
<path d="M61.5909 14.3116H64.2444V26.595H61.5909V24.8262C60.5917 26.2183 59.1585 26.9144 57.2913 26.9144C55.6042 26.9144 54.1628 26.292 52.9671 25.0473C51.7714 23.7862 51.1735 22.2549 51.1735 20.4533C51.1735 18.6353 51.7714 17.104 52.9671 15.8593C54.1628 14.6145 55.6042 13.9922 57.2913 13.9922C59.1585 13.9922 60.5917 14.6801 61.5909 16.0558V14.3116ZM54.9326 23.2785C55.6697 24.0155 56.5951 24.384 57.7089 24.384C58.8227 24.384 59.7482 24.0155 60.4853 23.2785C61.2223 22.5251 61.5909 21.5834 61.5909 20.4533C61.5909 19.3232 61.2223 18.3897 60.4853 17.6527C59.7482 16.8993 58.8227 16.5226 57.7089 16.5226C56.5951 16.5226 55.6697 16.8993 54.9326 17.6527C54.1955 18.3897 53.827 19.3232 53.827 20.4533C53.827 21.5834 54.1955 22.5251 54.9326 23.2785Z" fill="white"/>
<path d="M75.6662 14.3116H78.5654L73.7744 26.595H70.7032L65.9122 14.3116H68.8114L72.2511 23.647L75.6662 14.3116Z" fill="white"/>
<path d="M81.8542 21.5834C82.0508 22.5169 82.5012 23.2375 83.2055 23.7452C83.9098 24.2366 84.7698 24.4823 85.7853 24.4823C87.1939 24.4823 88.2504 23.9745 88.9547 22.9591L91.1414 24.2366C89.9293 26.0218 88.1358 26.9144 85.7607 26.9144C83.7624 26.9144 82.149 26.3084 80.9206 25.0964C79.6921 23.8681 79.0779 22.3204 79.0779 20.4533C79.0779 18.619 79.6839 17.0876 80.896 15.8593C82.1081 14.6145 83.6642 13.9922 85.5642 13.9922C87.3659 13.9922 88.8401 14.6227 89.9867 15.8838C91.1496 17.1449 91.7311 18.6763 91.7311 20.4778C91.7311 20.7563 91.6983 21.1248 91.6328 21.5834H81.8542ZM81.8296 19.4215H89.053C88.8728 18.4224 88.4552 17.669 87.8 17.1613C87.1612 16.6536 86.4077 16.3997 85.5396 16.3997C84.5568 16.3997 83.7379 16.67 83.0827 17.2105C82.4275 17.7509 82.0098 18.4879 81.8296 19.4215Z" fill="white"/>
</svg>
